<svg width="149" height="32" xmlns="http://www.w3.org/2000/svg" xmlns:xlink="http://www.w3.org/1999/xlink"><defs><path d="M27.852 17.207a1.7 1.7 0 012.364-.516 1.739 1.739 0 01.51 2.39L22.99 31.207a1.7 1.7 0 01-2.364.516 1.739 1.739 0 01-.51-2.389zm-3.484-6.01a1.7 1.7 0 012.364-.516 1.74 1.74 0 01.51 2.389L15.67 31.208a1.7 1.7 0 01-2.364.516 1.739 1.739 0 01-.51-2.389zM23.678.792a1.7 1.7 0 012.365-.516 1.739 1.739 0 01.51 2.389L8.344 31.208a1.7 1.7 0 01-2.364.516 1.739 1.739 0 01-.51-2.389zm-7.327 0a1.7 1.7 0 012.364-.516 1.739 1.739 0 01.51 2.389L7.608 20.876a1.7 1.7 0 01-2.364.516 1.739 1.739 0 01-.511-2.388zm-7.34 0a1.7 1.7 0 012.364-.516 1.739 1.739 0 01.51 2.389L4.149 14.793a1.7 1.7 0 01-2.364.516 1.739 1.739 0 01-.51-2.39z" id="a"/></defs><g fill="none" fill-rule="evenodd"><use fill="#FFF" xlink:href="#a"/><path d="M72.86 8l5.4 14.2h-2.84l-1.32-3.54h-4.96l-1.3 3.54H65L70.42 8h2.44zM51.54 8v2.42h-6.78v3.66h5.64v2.24h-5.64v5.88H42V8h9.54zm4.7 0v11.78h7.24v2.42h-10V8h2.76zm32.58 0v2.42h-4.54V22.2h-2.74V10.42H77V8h11.82zm-17.18 3.14l-2.04 5.58h4l-1.96-5.58z" fill="#FFF"/><g fill="#FFF"><path d="M97.5 25.1V7h-1.18v18.1z"/><path d="M108.18 22v-6.64h8.42V22h1.38V7.8h-1.38v6.32h-8.42V7.8h-1.4V22h1.4zm17.44.2a5.55 5.55 0 001.46-.19 4.995 4.995 0 001.28-.54 4.747 4.747 0 001.02-.82c.293-.313.52-.663.68-1.05l-1.18-.32c-.12.28-.293.537-.52.77-.227.233-.48.43-.76.59-.28.16-.587.287-.92.38-.333.093-.667.14-1 .14-.507 0-.983-.097-1.43-.29a3.808 3.808 0 01-1.19-.81 4.26 4.26 0 01-.85-1.23c-.22-.473-.35-.99-.39-1.55h8.92a.805.805 0 00.02-.22v-.32a5.492 5.492 0 00-1.44-3.74 4.969 4.969 0 00-1.63-1.17 5.01 5.01 0 00-2.09-.43 5.03 5.03 0 00-2.08.43c-.64.287-1.19.673-1.65 1.16a5.358 5.358 0 00-1.08 1.7 5.496 5.496 0 00-.39 2.07c0 .747.13 1.447.39 2.1a5.48 5.48 0 001.09 1.73 5.01 5.01 0 003.74 1.61zm3.84-5.96h-7.66c.04-.547.163-1.053.37-1.52a3.686 3.686 0 012.01-1.98c.453-.187.933-.28 1.44-.28.507 0 .983.093 1.43.28.447.187.84.447 1.18.78a4.165 4.165 0 011.23 2.72zm5.48 5.88c.267 0 .583-.033.95-.1a4.49 4.49 0 00.93-.26l-.24-1.1a3.434 3.434 0 01-1.08.22c-.387 0-.687-.11-.9-.33-.213-.22-.32-.523-.32-.91V7.4h-1.36v12.7c0 .64.18 1.137.54 1.49.36.353.853.53 1.48.53zm4.72 4.14v-6.42c.413.68.957 1.243 1.63 1.69.673.447 1.45.67 2.33.67a4.25 4.25 0 001.91-.43 4.664 4.664 0 001.5-1.17c.42-.493.743-1.067.97-1.72.227-.653.34-1.347.34-2.08 0-.693-.123-1.367-.37-2.02a5.57 5.57 0 00-1.03-1.73c-.44-.5-.96-.9-1.56-1.2-.6-.3-1.26-.45-1.98-.45-.8 0-1.54.203-2.22.61a5.05 5.05 0 00-1.66 1.59v-2.02h-1.22v14.68h1.36zm3.58-5.26a3.2 3.2 0 01-1.12-.2 4.023 4.023 0 01-1.01-.55 4.304 4.304 0 01-.84-.83 4.782 4.782 0 01-.61-1.04v-3.2c.053-.347.197-.677.43-.99.233-.313.513-.587.84-.82a4.48 4.48 0 011.06-.56c.38-.14.743-.21 1.09-.21.547 0 1.057.113 1.53.34.473.227.883.533 1.23.92a4.417 4.417 0 011.12 2.94 4.7 4.7 0 01-.26 1.55c-.173.5-.423.947-.75 1.34-.327.393-.72.71-1.18.95-.46.24-.97.36-1.53.36z" fill-rule="nonzero"/></g></g></svg>